<svg width="82" height="65" viewBox="0 0 82 65" fill="none" xmlns="http://www.w3.org/2000/svg">
<g clip-path="url(#clip0_144_128)">
<path d="M73.4953 13.1989C73.4953 13.1989 75.0728 13.29 75.953 13.4969L75.8607 13.4631V5.47424C75.8607 4.39886 75.0237 3.5304 73.9924 3.5304H26.1898L26.3375 3.91347L29.9097 13.1604L73.4953 13.1989Z" fill="white"/>
<path d="M74.7463 6H18C17.4477 6 17 6.44772 17 7V7.54902C17 8.1013 17.4477 8.54902 18 8.54902H74.7463C75.2986 8.54902 75.7463 8.1013 75.7463 7.54902V7C75.7463 6.44772 75.2986 6 74.7463 6Z" fill="#030303"/>
<path d="M74.7463 10H18C17.4477 10 17 10.4477 17 11V11.549C17 12.1013 17.4477 12.549 18 12.549H74.7463C75.2986 12.549 75.7463 12.1013 75.7463 11.549V11C75.7463 10.4477 75.2986 10 74.7463 10Z" fill="#030303"/>
<path d="M0.889441 54.9488H0.5V4.12808C0.5 2.10329 2.0707 0.5 3.96444 0.5H24.4832L25.8711 4.0936L25.8711 4.09364L29.4433 13.3406L29.5667 13.6601L29.9092 13.6604L73.4801 13.6988L73.4828 13.699L73.5326 13.7021C73.5762 13.7049 73.6399 13.7092 73.7192 13.715C73.878 13.7266 74.0987 13.7441 74.3461 13.768C74.8433 13.8159 75.4216 13.887 75.8257 13.9806C79.0589 14.9329 81.4583 18.0279 81.4583 21.7242V54.9488H81.0795H0.889441ZM0.5 60.5415V59.0273H0.889441H81.0795H81.4583V60.5415C81.4583 62.5616 79.8892 64.165 77.9953 64.165H3.96592C2.07022 64.165 0.5 62.5612 0.5 60.5415Z" fill="#030303" stroke="white"/>
<path d="M81.0795 55.4489H0.889435V58.5273H81.0795V55.4489Z" fill="white"/>
<g clip-path="url(#clip1_144_128)">
<path d="M79.0625 47.878L79.1243 48.1623L79.402 48.2491C82.6877 49.2762 85.0922 52.4339 85.0922 56.1878C85.0922 58.5192 84.3924 60.5916 83.1632 62.0717C81.9408 63.5436 80.1782 64.4527 77.9813 64.4527C77.7374 64.4527 77.2742 64.448 76.8152 64.433C76.3419 64.4176 75.9172 64.3922 75.7237 64.3579L75.6804 64.3502H75.6364H67.2736V57.0225H71.3839C72.1514 57.0225 72.4872 56.1138 72.0156 55.5844C72.0156 55.5843 72.0155 55.5843 72.0155 55.5843L64.2399 46.8543V46.3565L63.5877 46.5649L63.581 46.5671L63.7326 47.0412H63.7294L63.3599 46.7121L55.4577 55.5843C54.9985 56.0997 55.2968 57.0225 56.0826 57.0225H60.1996V64.3502H49.2324L49.1002 64.347C44.901 64.2424 41.5 60.6892 41.5 56.2844C41.5 51.8139 45.0009 48.2179 49.2932 48.2179C49.3354 48.2179 49.3789 48.2194 49.4407 48.2217L49.4407 48.2217L49.9142 48.2387L49.9567 47.7668C50.18 45.2833 52.1968 43.363 54.632 43.363C55.7527 43.363 56.7853 43.7731 57.594 44.4593L58.0454 44.8423L58.3475 44.3332C59.5856 42.2466 61.4369 40.5946 63.6391 39.6424L63.955 39.5181V39.5147C64.0605 39.4718 64.1542 39.4342 64.2514 39.399C64.3254 39.3733 64.395 39.3495 64.465 39.3255L64.5075 39.3109C64.6424 39.2671 64.7708 39.2267 64.9056 39.1857L64.9056 39.1857L64.9115 39.1838C64.9795 39.1622 65.0565 39.1407 65.1389 39.119L65.1426 39.118C65.35 39.0618 65.5515 39.0105 65.7568 38.9675L65.7568 38.9676L65.7636 38.9661C65.771 38.9644 65.7805 38.9626 65.802 38.9588L65.8063 38.958C65.8243 38.9548 65.8499 38.9503 65.8778 38.9445C66.0541 38.9109 66.2365 38.8797 66.4129 38.8529L66.4194 38.8521C66.4947 38.8423 66.5617 38.8336 66.6344 38.8248L66.6369 38.8245C66.7983 38.8044 66.9541 38.7872 67.114 38.7757L67.1155 38.7756C67.1641 38.772 67.1966 38.769 67.2247 38.7663C67.2577 38.7633 67.2848 38.7607 67.3251 38.7585L67.3255 38.7584C67.56 38.745 67.7877 38.7353 68.0124 38.7353C73.3981 38.7353 77.9234 42.6337 79.0625 47.878Z" fill="#00D6A0" stroke="white"/>
<path d="M71.6422 55.9169L63.7399 47.0446V47.0412L63.7332 47.0433V47.0412V47.0446L55.831 55.9169C55.6256 56.1474 55.778 56.5225 56.0826 56.5225H60.3485C60.5406 56.5225 60.6995 56.6826 60.6995 56.8824V64.8502H66.7736V56.8824C66.7736 56.6826 66.9259 56.5225 67.1181 56.5225H71.3839C71.6886 56.5225 71.8476 56.1474 71.6422 55.9169Z" fill="#030303"/>
</g>
<path d="M18.3319 26.4969C18.3319 25.6269 18.3269 25.0569 18.3169 24.7869C18.2969 24.3769 18.2419 24.0819 18.1519 23.9019C18.0619 23.7119 17.9169 23.5969 17.7169 23.5569C17.5169 23.5269 17.2319 23.5119 16.8619 23.5119C16.4319 23.5119 16.1519 23.5319 16.0219 23.5719V21.2319C16.1119 21.2219 16.2469 21.2169 16.4269 21.2169H16.8619C17.9819 21.2169 18.8469 21.3069 19.4569 21.4869C20.0769 21.6569 20.5269 21.9419 20.8069 22.3419C21.0669 22.7119 21.2269 23.1969 21.2869 23.7969C21.3569 24.3969 21.3919 25.2969 21.3919 26.4969C21.3919 27.5469 21.3669 28.3569 21.3169 28.9269C21.2769 29.4869 21.1669 29.9519 20.9869 30.3219C20.7869 30.7419 20.4769 31.0619 20.0569 31.2819C19.6469 31.5019 19.0719 31.6469 18.3319 31.7169V26.4969ZM16.8619 31.7769C15.4019 31.7769 14.3519 31.6169 13.7119 31.2969C13.3819 31.1369 13.1219 30.9219 12.9319 30.6519C12.7419 30.3819 12.6019 30.0469 12.5119 29.6469C12.4319 29.2969 12.3819 28.8969 12.3619 28.4469C12.3419 27.9869 12.3319 27.3369 12.3319 26.4969C12.3319 25.4469 12.3519 24.6419 12.3919 24.0819C12.4419 23.5219 12.5569 23.0519 12.7369 22.6719C12.9369 22.2619 13.2419 21.9469 13.6519 21.7269C14.0619 21.5069 14.6419 21.3569 15.3919 21.2769V26.4969C15.3919 27.0869 15.4019 27.6519 15.4219 28.1919C15.4419 28.6019 15.4919 28.9019 15.5719 29.0919C15.6619 29.2819 15.8069 29.3919 16.0069 29.4219C16.1769 29.4619 16.4619 29.4819 16.8619 29.4819C17.2719 29.4819 17.5519 29.4669 17.7019 29.4369V31.7619C17.6119 31.7719 17.4769 31.7769 17.2969 31.7769H16.8619ZM27.2905 28.0419C27.2905 27.5119 27.2855 27.1619 27.2755 26.9919C27.2555 26.7119 27.2305 26.5269 27.2005 26.4369C27.1605 26.3369 27.0905 26.2769 26.9905 26.2569C26.8905 26.2269 26.7305 26.2119 26.5105 26.2119H26.3605V24.3369C26.7505 24.0469 27.2605 23.9019 27.8905 23.9019C28.7905 23.9019 29.3955 24.1769 29.7055 24.7269C29.8455 24.9669 29.9405 25.2619 29.9905 25.6119C30.0405 25.9519 30.0655 26.3719 30.0655 26.8719V31.6569H27.2905V28.0419ZM22.9555 24.0069H25.7305V31.6569H22.9555V24.0069ZM34.9389 27.0819H35.9889C35.9889 26.5219 35.9339 26.1619 35.8239 26.0019C35.7639 25.9119 35.6839 25.8569 35.5839 25.8369C35.4839 25.8069 35.3389 25.7919 35.1489 25.7919H34.9389V23.8869H35.1489C36.0089 23.8869 36.6689 23.9569 37.1289 24.0969C37.5989 24.2369 37.9439 24.4669 38.1639 24.7869C38.3639 25.0669 38.4839 25.4269 38.5239 25.8669C38.5739 26.3069 38.5989 26.9669 38.5989 27.8469V28.4469H34.9389V27.0819ZM35.4489 31.7769C34.5289 31.7769 33.8039 31.7019 33.2739 31.5519C32.7539 31.3919 32.3639 31.1419 32.1039 30.8019C31.8739 30.5019 31.7239 30.1319 31.6539 29.6919C31.5839 29.2419 31.5489 28.6269 31.5489 27.8469C31.5489 27.1269 31.5739 26.5569 31.6239 26.1369C31.6739 25.7069 31.7789 25.3419 31.9389 25.0419C32.1189 24.7119 32.3939 24.4569 32.7639 24.2769C33.1439 24.0869 33.6589 23.9669 34.3089 23.9169V28.4469C34.3089 28.7869 34.3239 29.0319 34.3539 29.1819C34.3839 29.3219 34.4539 29.4269 34.5639 29.4969C34.6839 29.5769 34.8689 29.6219 35.1189 29.6319C35.4389 29.6519 35.7789 29.6619 36.1389 29.6619C36.7789 29.6619 37.2439 29.6469 37.5339 29.6169L38.2989 29.5569V31.4919C37.8989 31.6119 37.3489 31.6919 36.6489 31.7319C36.3089 31.7619 35.9089 31.7769 35.4489 31.7769ZM43.6635 21.2469C44.0635 21.2269 44.3935 21.2169 44.6535 21.2169C45.5535 21.2169 46.3785 21.2769 47.1285 21.3969C47.5085 21.4369 47.8735 21.4969 48.2235 21.5769V23.7219C47.8035 23.6819 47.4885 23.6469 47.2785 23.6169C47.1085 23.6069 46.8335 23.5819 46.4535 23.5419C46.0735 23.5219 45.8235 23.5119 45.7035 23.5119C45.0935 23.5119 44.6435 23.5269 44.3535 23.5569C44.0735 23.5769 43.8435 23.6369 43.6635 23.7369V21.2469ZM44.6535 31.7769C43.6535 31.7769 42.8535 31.7019 42.2535 31.5519C41.6635 31.4019 41.2035 31.1369 40.8735 30.7569C40.5435 30.3769 40.3085 29.8519 40.1685 29.1819C40.0385 28.5119 39.9735 27.6169 39.9735 26.4969C39.9735 25.5469 40.0185 24.7669 40.1085 24.1569C40.1985 23.5469 40.3535 23.0469 40.5735 22.6569C40.8035 22.2569 41.1135 21.9519 41.5035 21.7419C41.8935 21.5319 42.4035 21.3869 43.0335 21.3069V26.4969C43.0335 27.2069 43.0535 27.7519 43.0935 28.1319C43.1335 28.5019 43.2085 28.7869 43.3185 28.9869C43.4385 29.1969 43.6085 29.3419 43.8285 29.4219C44.0585 29.5019 44.3835 29.5419 44.8035 29.5419V31.7769H44.6535ZM45.4335 27.6969H44.3685V25.5219H48.2685V31.4019C47.7985 31.5119 47.2135 31.5969 46.5135 31.6569C46.1735 31.7069 45.8135 31.7369 45.4335 31.7469V27.6969ZM50.1458 21.3369H53.1458V31.6569H50.1458V21.3369ZM53.7758 21.3369H57.5858V23.6319H53.7758V21.3369ZM53.7758 25.2969H56.8808V27.5919H53.7758V25.2969ZM53.7758 29.3619H57.5858V31.6569H53.7758V29.3619ZM59.389 21.3369H62.389V31.6569H59.389V21.3369ZM63.019 29.3619H63.139C63.629 29.3619 63.974 29.3419 64.174 29.3019C64.384 29.2519 64.539 29.1419 64.639 28.9719C64.749 28.7919 64.809 28.5069 64.819 28.1169C64.839 27.6169 64.849 27.0769 64.849 26.4969C64.849 25.9269 64.839 25.3819 64.819 24.8619C64.799 24.4719 64.734 24.1869 64.624 24.0069C64.524 23.8269 64.359 23.7169 64.129 23.6769C63.899 23.6469 63.569 23.6319 63.139 23.6319H63.019V21.3369H63.139C63.939 21.3369 64.604 21.3719 65.134 21.4419C65.674 21.5119 66.119 21.6219 66.469 21.7719C66.809 21.9219 67.079 22.1269 67.279 22.3869C67.479 22.6469 67.624 22.9719 67.714 23.3619C67.794 23.7119 67.844 24.1269 67.864 24.6069C67.894 25.0769 67.909 25.7069 67.909 26.4969C67.909 27.2969 67.894 27.9319 67.864 28.4019C67.844 28.8719 67.794 29.2819 67.714 29.6319C67.624 30.0219 67.479 30.3469 67.279 30.6069C67.079 30.8669 66.809 31.0719 66.469 31.2219C66.119 31.3719 65.674 31.4819 65.134 31.5519C64.604 31.6219 63.939 31.6569 63.139 31.6569H63.019V29.3619Z" fill="white"/>
</g>
<defs>
<clipPath id="clip0_144_128">
<rect width="82" height="65" fill="white"/>
</clipPath>
<clipPath id="clip1_144_128">
<rect width="44.6716" height="26.7647" fill="white" transform="translate(41 38.2353)"/>
</clipPath>
</defs>
</svg>
